<svg width="800" height="400" xmlns="http://www.w3.org/2000/svg">
  <defs>
    <marker id="arrowhead" markerWidth="10" markerHeight="7" refX="0" refY="3.5" orient="auto">
      <polygon points="0 0, 10 3.5, 0 7" fill="#333" />
    </marker>
  </defs>

  <!-- Background -->
  <rect width="800" height="400" fill="#f9f9f9" />

  <!-- OpenXR Passthrough Section -->
  <rect x="50" y="50" width="200" height="100" rx="10" fill="#e1f5fe" stroke="#01579b" stroke-width="2" />
  <text x="150" y="90" text-anchor="middle" font-family="Arial" font-size="16" font-weight="bold" fill="#01579b">OpenXR Passthrough</text>
  <text x="150" y="115" text-anchor="middle" font-family="Arial" font-size="12" fill="#01579b">(Camera Sensors)</text>

  <!-- Vulkan ML Inference Section -->
  <rect x="300" y="150" width="200" height="100" rx="10" fill="#fff3e0" stroke="#e65100" stroke-width="2" />
  <text x="400" y="190" text-anchor="middle" font-family="Arial" font-size="16" font-weight="bold" fill="#e65100">Vulkan ML Inference</text>
  <text x="400" y="215" text-anchor="middle" font-family="Arial" font-size="12" fill="#e65100">(Plane &amp; Object Detection)</text>

  <!-- Scene Reconstruction Section -->
  <rect x="550" y="50" width="200" height="100" rx="10" fill="#e8f5e9" stroke="#1b5e20" stroke-width="2" />
  <text x="650" y="90" text-anchor="middle" font-family="Arial" font-size="16" font-weight="bold" fill="#1b5e20">Scene Understanding</text>
  <text x="650" y="115" text-anchor="middle" font-family="Arial" font-size="12" fill="#1b5e20">(3D Anchors &amp; Planes)</text>

  <!-- Vulkan Renderer Section -->
  <rect x="300" y="280" width="200" height="80" rx="10" fill="#f3e5f5" stroke="#4a148c" stroke-width="2" />
  <text x="400" y="315" text-anchor="middle" font-family="Arial" font-size="16" font-weight="bold" fill="#4a148c">Vulkan Renderer</text>
  <text x="400" y="335" text-anchor="middle" font-family="Arial" font-size="12" fill="#4a148c">(Frame Composition)</text>

  <!-- Arrows -->
  <path d="M 250 100 L 290 100 Q 300 100 300 110 L 300 150" fill="none" stroke="#333" stroke-width="2" marker-end="url(#arrowhead)" />
  <text x="310" y="125" font-family="Arial" font-size="12" fill="#333">VkImage (dmabuf)</text>

  <path d="M 500 200 L 540 200 Q 550 200 550 190 L 550 150" fill="none" stroke="#333" stroke-width="2" marker-end="url(#arrowhead)" />
  <text x="560" y="180" font-family="Arial" font-size="12" fill="#333">Segmentation Mask</text>

  <path d="M 650 150 L 650 250 Q 650 260 640 260 L 400 260 L 400 280" fill="none" stroke="#333" stroke-width="2" marker-end="url(#arrowhead)" />
  <text x="500" y="250" font-family="Arial" font-size="12" fill="#333">3D Transformation</text>

  <path d="M 300 320 L 150 320 L 150 150" fill="none" stroke="#333" stroke-width="2" marker-end="url(#arrowhead)" />
  <text x="160" y="250" font-family="Arial" font-size="12" fill="#333">Display Pipeline</text>

</svg>
